<svg width="1440" height="1191" viewBox="0 0 1440 1191" fill="none" xmlns="http://www.w3.org/2000/svg">
<line x1="1.5" x2="1.5" y2="1190" stroke="white" stroke-opacity="0.1"/>
<line x1="36.5" x2="36.5" y2="1190" stroke="white" stroke-opacity="0.1"/>
<line x1="71.5" x2="71.5" y2="1190" stroke="white" stroke-opacity="0.1"/>
<line x1="106.25" x2="106.25" y2="1190" stroke="white" stroke-opacity="0.1" stroke-width="0.5"/>
<line x1="141.5" x2="141.5" y2="1190" stroke="white" stroke-opacity="0.1"/>
<line x1="176.5" x2="176.5" y2="1190" stroke="white" stroke-opacity="0.1"/>
<line x1="211.5" x2="211.5" y2="1190" stroke="white" stroke-opacity="0.1"/>
<line x1="246.5" x2="246.5" y2="1190" stroke="white" stroke-opacity="0.1"/>
<line x1="281.25" x2="281.25" y2="1190" stroke="white" stroke-opacity="0.1" stroke-width="0.5"/>
<line x1="316.5" x2="316.5" y2="1190" stroke="white" stroke-opacity="0.1"/>
<line x1="351.5" x2="351.5" y2="1190" stroke="white" stroke-opacity="0.1"/>
<line x1="386.5" x2="386.5" y2="1190" stroke="white" stroke-opacity="0.1"/>
<line x1="421.5" x2="421.5" y2="1190" stroke="white" stroke-opacity="0.1"/>
<line x1="456.25" x2="456.25" y2="1190" stroke="white" stroke-opacity="0.1" stroke-width="0.5"/>
<line x1="491.5" x2="491.5" y2="1190" stroke="white" stroke-opacity="0.1"/>
<line x1="526.5" x2="526.5" y2="1190" stroke="white" stroke-opacity="0.1"/>
<line x1="561.5" x2="561.5" y2="1190" stroke="white" stroke-opacity="0.1"/>
<line x1="596.5" x2="596.5" y2="1190" stroke="white" stroke-opacity="0.1"/>
<line x1="631.25" x2="631.25" y2="1190" stroke="white" stroke-opacity="0.1" stroke-width="0.5"/>
<line x1="666.5" x2="666.5" y2="1190" stroke="white" stroke-opacity="0.1"/>
<line x1="701.5" x2="701.5" y2="1190" stroke="white" stroke-opacity="0.1"/>
<line x1="736.5" x2="736.5" y2="1190" stroke="white" stroke-opacity="0.1"/>
<line x1="771.5" x2="771.5" y2="1190" stroke="white" stroke-opacity="0.1"/>
<line x1="806.25" x2="806.25" y2="1190" stroke="white" stroke-opacity="0.1" stroke-width="0.5"/>
<line x1="841.5" x2="841.5" y2="1190" stroke="white" stroke-opacity="0.1"/>
<line x1="876.5" x2="876.5" y2="1190" stroke="white" stroke-opacity="0.1"/>
<line x1="911.5" x2="911.5" y2="1190" stroke="white" stroke-opacity="0.1"/>
<line x1="946.5" x2="946.5" y2="1190" stroke="white" stroke-opacity="0.1"/>
<line x1="981.25" x2="981.25" y2="1190" stroke="white" stroke-opacity="0.1" stroke-width="0.5"/>
<line x1="1016.5" x2="1016.5" y2="1190" stroke="white" stroke-opacity="0.1"/>
<line x1="1051.5" x2="1051.5" y2="1190" stroke="white" stroke-opacity="0.1"/>
<line x1="1086.5" x2="1086.5" y2="1190" stroke="white" stroke-opacity="0.1"/>
<line x1="1121.5" x2="1121.5" y2="1190" stroke="white" stroke-opacity="0.1"/>
<line x1="1156.25" x2="1156.25" y2="1190" stroke="white" stroke-opacity="0.1" stroke-width="0.5"/>
<line x1="1191.5" x2="1191.5" y2="1190" stroke="white" stroke-opacity="0.1"/>
<line x1="1226.5" x2="1226.5" y2="1190" stroke="white" stroke-opacity="0.1"/>
<line x1="1261.5" x2="1261.5" y2="1190" stroke="white" stroke-opacity="0.1"/>
<line x1="1296.5" x2="1296.5" y2="1190" stroke="white" stroke-opacity="0.1"/>
<line x1="1331.25" x2="1331.25" y2="1190" stroke="white" stroke-opacity="0.1" stroke-width="0.5"/>
<line x1="1366.5" x2="1366.5" y2="1190" stroke="white" stroke-opacity="0.1"/>
<line x1="1401.5" x2="1401.5" y2="1190" stroke="white" stroke-opacity="0.1"/>
<line x1="1436.5" x2="1436.5" y2="1190" stroke="white" stroke-opacity="0.1"/>
<line x1="1509" y1="35.5" x2="-69" y2="35.4999" stroke="white" stroke-opacity="0.1"/>
<line x1="1509" y1="70.5" x2="-69" y2="70.4999" stroke="white" stroke-opacity="0.1"/>
<line x1="1509" y1="105.5" x2="-69" y2="105.5" stroke="white" stroke-opacity="0.1"/>
<line x1="1509" y1="140.5" x2="-69" y2="140.5" stroke="white" stroke-opacity="0.1"/>
<line x1="1509" y1="175.25" x2="-69" y2="175.25" stroke="white" stroke-opacity="0.1" stroke-width="0.5"/>
<line x1="1509" y1="210.5" x2="-69" y2="210.5" stroke="white" stroke-opacity="0.1"/>
<line x1="1509" y1="245.5" x2="-69" y2="245.5" stroke="white" stroke-opacity="0.1"/>
<line x1="1509" y1="280.5" x2="-69" y2="280.5" stroke="white" stroke-opacity="0.1"/>
<line x1="1509" y1="315.5" x2="-69" y2="315.5" stroke="white" stroke-opacity="0.1"/>
<line x1="1509" y1="350.25" x2="-69" y2="350.25" stroke="white" stroke-opacity="0.1" stroke-width="0.5"/>
<line x1="1509" y1="385.5" x2="-69" y2="385.5" stroke="white" stroke-opacity="0.1"/>
<line x1="1509" y1="420.5" x2="-69" y2="420.5" stroke="white" stroke-opacity="0.1"/>
<line x1="1509" y1="455.5" x2="-69" y2="455.5" stroke="white" stroke-opacity="0.1"/>
<line x1="1509" y1="490.5" x2="-69" y2="490.5" stroke="white" stroke-opacity="0.1"/>
<line x1="1509" y1="525.25" x2="-69" y2="525.25" stroke="white" stroke-opacity="0.1" stroke-width="0.5"/>
<line x1="1509" y1="560.5" x2="-69" y2="560.5" stroke="white" stroke-opacity="0.1"/>
<line x1="1509" y1="595.5" x2="-69" y2="595.5" stroke="white" stroke-opacity="0.1"/>
<line x1="1509" y1="630.5" x2="-69" y2="630.5" stroke="white" stroke-opacity="0.1"/>
<line x1="1509" y1="665.5" x2="-69" y2="665.5" stroke="white" stroke-opacity="0.1"/>
<line x1="1509" y1="700.25" x2="-69" y2="700.25" stroke="white" stroke-opacity="0.1" stroke-width="0.5"/>
<line x1="1509" y1="735.5" x2="-69" y2="735.5" stroke="white" stroke-opacity="0.1"/>
<line x1="1509" y1="770.5" x2="-69" y2="770.5" stroke="white" stroke-opacity="0.1"/>
<line x1="1509" y1="805.5" x2="-69" y2="805.5" stroke="white" stroke-opacity="0.1"/>
<line x1="1509" y1="840.5" x2="-69" y2="840.5" stroke="white" stroke-opacity="0.1"/>
<line x1="1509" y1="875.25" x2="-69" y2="875.25" stroke="white" stroke-opacity="0.1" stroke-width="0.5"/>
<line x1="1509" y1="910.5" x2="-69" y2="910.5" stroke="white" stroke-opacity="0.1"/>
<line x1="1509" y1="945.5" x2="-69" y2="945.5" stroke="white" stroke-opacity="0.1"/>
<line x1="1509" y1="980.5" x2="-69" y2="980.5" stroke="white" stroke-opacity="0.1"/>
<line x1="1509" y1="1015.25" x2="-69" y2="1015.25" stroke="white" stroke-opacity="0.1" stroke-width="0.5"/>
<line x1="1509" y1="1050.5" x2="-69" y2="1050.5" stroke="white" stroke-opacity="0.1"/>
<line x1="1509" y1="1050.5" x2="-69" y2="1050.5" stroke="white" stroke-opacity="0.1"/>
<line x1="1509" y1="1085.5" x2="-69" y2="1085.5" stroke="white" stroke-opacity="0.1"/>
<line x1="1509" y1="1120.5" x2="-69" y2="1120.5" stroke="white" stroke-opacity="0.1"/>
<line x1="1509" y1="1155.5" x2="-69" y2="1155.5" stroke="white" stroke-opacity="0.1"/>
<line x1="1509" y1="1190.5" x2="-69" y2="1190.5" stroke="white" stroke-opacity="0.1"/>
<line x1="107.5" x2="107.5" y2="1190" stroke="white" stroke-opacity="0.1" stroke-width="3"/>
<line x1="282.5" x2="282.5" y2="1190" stroke="white" stroke-opacity="0.1" stroke-width="3"/>
<line x1="457.5" x2="457.5" y2="1190" stroke="white" stroke-opacity="0.1" stroke-width="3"/>
<line x1="632.5" x2="632.5" y2="1190" stroke="white" stroke-opacity="0.1" stroke-width="3"/>
<line x1="807.5" x2="807.5" y2="1190" stroke="white" stroke-opacity="0.1" stroke-width="3"/>
<line x1="982.5" x2="982.5" y2="1190" stroke="white" stroke-opacity="0.1" stroke-width="3"/>
<line x1="1157.5" x2="1157.5" y2="1190" stroke="white" stroke-opacity="0.1" stroke-width="3"/>
<line x1="1332.5" x2="1332.5" y2="1190" stroke="white" stroke-opacity="0.1" stroke-width="3"/>
<line x1="1509" y1="176.5" x2="-69" y2="176.5" stroke="white" stroke-opacity="0.1" stroke-width="3"/>
<line x1="1509" y1="351.5" x2="-69" y2="351.5" stroke="white" stroke-opacity="0.1" stroke-width="3"/>
<line x1="1509" y1="526.5" x2="-69" y2="526.5" stroke="white" stroke-opacity="0.1" stroke-width="3"/>
<line x1="1509" y1="701.5" x2="-69" y2="701.5" stroke="white" stroke-opacity="0.1" stroke-width="3"/>
<line x1="1509" y1="876.5" x2="-69" y2="876.5" stroke="white" stroke-opacity="0.1" stroke-width="3"/>
<line x1="1509" y1="1016.5" x2="-69" y2="1016.5" stroke="white" stroke-opacity="0.1" stroke-width="3"/>
</svg>
