<svg width="734" height="734" viewBox="0 0 734 734" fill="none" xmlns="http://www.w3.org/2000/svg">
<circle cx="366.891" cy="366.89" r="259.431" transform="rotate(45 366.891 366.89)" fill="#F4F4F4"/>
<circle cx="395.633" cy="338.147" r="218.783" transform="rotate(45 395.633 338.147)" fill="#EEEEEE"/>
<circle cx="427.757" cy="306.024" r="173.352" transform="rotate(45 427.757 306.024)" fill="#E1E1E1"/>
<circle cx="473.971" cy="259.81" r="107.996" transform="rotate(45 473.971 259.81)" fill="#F4F4F4"/>
<circle cx="551" cy="184" r="8" fill="#6587FF"/>
<circle cx="319" cy="440" r="8" fill="#6587FF"/>
<circle cx="259" cy="508" r="8" fill="#6587FF"/>
<path d="M585.656 183V166.2H592.28C595.616 166.2 597.776 168.168 597.776 171.216C597.776 174.264 595.616 176.232 592.28 176.232H588.488V183H585.656ZM588.488 173.784H592.088C593.864 173.784 594.92 172.824 594.92 171.216C594.92 169.608 593.864 168.648 592.088 168.648H588.488V173.784ZM607.345 173.448C606.913 173.256 606.337 173.16 605.785 173.16C604.009 173.16 602.449 174.744 602.449 178.488V183H599.833V170.904H602.449V173.208C603.097 171.768 604.681 170.712 606.145 170.712C606.601 170.712 607.129 170.784 607.489 170.928L607.345 173.448ZM614.472 183.192C610.824 183.192 608.232 180.576 608.232 176.952C608.232 173.328 610.824 170.712 614.472 170.712C618.096 170.712 620.712 173.328 620.712 176.952C620.712 180.576 618.096 183.192 614.472 183.192ZM614.472 180.912C616.608 180.912 618.072 179.28 618.072 176.952C618.072 174.624 616.608 172.992 614.472 172.992C612.312 172.992 610.872 174.624 610.872 176.952C610.872 179.28 612.312 180.912 614.472 180.912ZM628.266 183.192C624.57 183.192 622.482 180.6 622.482 176.952C622.482 173.304 624.57 170.712 628.218 170.712C629.778 170.712 631.194 171.408 631.914 172.416V166.008H634.53V183H631.914V181.464C631.338 182.472 629.874 183.192 628.266 183.192ZM628.602 180.912C630.714 180.912 632.106 179.328 632.106 176.952C632.106 174.552 630.714 172.992 628.602 172.992C626.49 172.992 625.098 174.552 625.098 176.952C625.098 179.328 626.49 180.912 628.602 180.912ZM648.582 170.904V183H645.966V180.984C645.174 182.28 643.758 183.192 642.006 183.192C639.414 183.192 637.614 181.488 637.614 178.872V170.904H640.23V178.272C640.23 179.784 641.19 180.84 642.726 180.84C644.742 180.84 645.966 179.112 645.966 176.208V170.904H648.582ZM657.101 183.192C653.477 183.192 651.029 180.672 651.029 176.952C651.029 173.232 653.477 170.712 657.101 170.712C660.077 170.712 662.213 172.296 662.621 174.792L660.077 175.296C659.837 173.928 658.709 172.992 657.173 172.992C655.085 172.992 653.741 174.552 653.741 176.952C653.741 179.352 655.109 180.912 657.173 180.912C658.709 180.912 659.789 180.072 660.077 178.656L662.645 179.16C662.141 181.68 660.053 183.192 657.101 183.192ZM671.689 182.904C671.113 183.096 670.441 183.192 669.769 183.192C667.489 183.192 665.785 181.944 665.785 179.184V173.136H663.673V170.904H665.785V167.304H668.401V170.904H671.521V173.136H668.401V179.04C668.401 180.24 669.073 180.864 670.057 180.864C670.513 180.864 671.065 180.792 671.521 180.576L671.689 182.904Z" fill="black"/>
<path d="M342.656 432V415.2H345.464V432H342.656ZM348.653 432V419.904H351.269V421.92C352.085 420.624 353.477 419.712 355.253 419.712C357.821 419.712 359.621 421.416 359.621 424.032V432H357.005V424.632C357.005 423.12 356.069 422.064 354.533 422.064C352.493 422.064 351.269 423.792 351.269 426.696V432H348.653ZM366.868 432.192C363.916 432.192 362.236 430.368 361.684 428.64L363.844 427.728C364.252 429.024 365.188 430.104 366.868 430.104C368.116 430.104 368.956 429.384 368.956 428.52C368.956 425.904 362.212 427.608 362.212 423.024C362.212 421.128 363.868 419.712 366.484 419.712C368.764 419.712 370.684 420.912 371.212 422.688L369.052 423.6C368.74 422.4 367.612 421.728 366.508 421.728C365.356 421.728 364.636 422.184 364.636 422.976C364.636 425.304 371.428 423.528 371.428 428.496C371.428 430.584 369.604 432.192 366.868 432.192ZM375.074 417.888C374.114 417.888 373.394 417.144 373.394 416.208C373.394 415.248 374.114 414.504 375.074 414.504C376.058 414.504 376.802 415.248 376.802 416.208C376.802 417.144 376.058 417.888 375.074 417.888ZM373.778 432V419.904H376.394V432H373.778ZM388.089 419.904H390.681V431.328C390.681 434.448 388.305 436.56 384.825 436.56C381.993 436.56 379.761 435.048 379.377 432.84L381.825 432.432C381.969 433.632 383.241 434.424 384.825 434.424C386.769 434.424 388.113 433.272 388.113 431.592V430.128C387.513 431.04 386.097 431.664 384.513 431.664C380.913 431.664 378.849 429.192 378.849 425.688C378.849 422.184 380.913 419.712 384.465 419.712C386.001 419.712 387.393 420.36 388.089 421.296V419.904ZM384.873 429.384C386.913 429.384 388.257 427.92 388.257 425.688C388.257 423.456 386.913 421.992 384.873 421.992C382.809 421.992 381.465 423.456 381.465 425.688C381.465 427.92 382.809 429.384 384.873 429.384ZM393.747 432V415.008H396.363V421.992C397.203 420.48 398.619 419.712 400.323 419.712C403.059 419.712 404.859 421.416 404.859 424.056V432H402.243V424.656C402.243 423.048 401.235 422.064 399.603 422.064C397.587 422.064 396.363 423.816 396.363 426.768V432H393.747ZM414.369 431.904C413.793 432.096 413.121 432.192 412.449 432.192C410.169 432.192 408.465 430.944 408.465 428.184V422.136H406.353V419.904H408.465V416.304H411.081V419.904H414.201V422.136H411.081V428.04C411.081 429.24 411.753 429.864 412.737 429.864C413.193 429.864 413.745 429.792 414.201 429.576L414.369 431.904ZM421.079 432.192C418.127 432.192 416.447 430.368 415.895 428.64L418.055 427.728C418.463 429.024 419.399 430.104 421.079 430.104C422.327 430.104 423.167 429.384 423.167 428.52C423.167 425.904 416.423 427.608 416.423 423.024C416.423 421.128 418.079 419.712 420.695 419.712C422.975 419.712 424.895 420.912 425.423 422.688L423.263 423.6C422.951 422.4 421.823 421.728 420.719 421.728C419.567 421.728 418.847 422.184 418.847 422.976C418.847 425.304 425.639 423.528 425.639 428.496C425.639 430.584 423.815 432.192 421.079 432.192Z" fill="black"/>
<path d="M297.072 509.192C292.848 509.192 288.912 506.336 288.912 500.6C288.912 494.864 292.92 492.008 297.216 492.008C301.128 492.008 303.96 494.096 304.608 497.48L301.824 498.056C301.392 495.848 299.64 494.456 297.192 494.456C294.024 494.456 291.768 496.664 291.768 500.6C291.768 504.536 294.024 506.72 297.168 506.72C299.952 506.72 301.776 504.992 301.92 502.472H296.544V500.144H304.536V509H301.992V506.744C301.224 508.232 299.256 509.192 297.072 509.192ZM315.001 499.448C314.569 499.256 313.993 499.16 313.441 499.16C311.665 499.16 310.105 500.744 310.105 504.488V509H307.489V496.904H310.105V499.208C310.753 497.768 312.337 496.712 313.801 496.712C314.257 496.712 314.785 496.784 315.145 496.928L315.001 499.448ZM322.128 509.192C318.48 509.192 315.888 506.576 315.888 502.952C315.888 499.328 318.48 496.712 322.128 496.712C325.752 496.712 328.368 499.328 328.368 502.952C328.368 506.576 325.752 509.192 322.128 509.192ZM322.128 506.912C324.264 506.912 325.728 505.28 325.728 502.952C325.728 500.624 324.264 498.992 322.128 498.992C319.968 498.992 318.528 500.624 318.528 502.952C318.528 505.28 319.968 506.912 322.128 506.912ZM333.172 509L329.428 496.904H332.092L334.372 505.352L336.988 496.904H339.412L342.004 505.352L344.284 496.904H346.948L343.228 509H340.804L338.188 500.576L335.572 509H333.172ZM355.931 508.904C355.355 509.096 354.683 509.192 354.011 509.192C351.731 509.192 350.027 507.944 350.027 505.184V499.136H347.915V496.904H350.027V493.304H352.643V496.904H355.763V499.136H352.643V505.04C352.643 506.24 353.315 506.864 354.299 506.864C354.755 506.864 355.307 506.792 355.763 506.576L355.931 508.904ZM358.559 509V492.008H361.175V498.992C362.015 497.48 363.431 496.712 365.135 496.712C367.871 496.712 369.671 498.416 369.671 501.056V509H367.055V501.656C367.055 500.048 366.047 499.064 364.415 499.064C362.399 499.064 361.175 500.816 361.175 503.768V509H358.559Z" fill="black"/>
</svg>
