<svg width="287" height="604" viewBox="0 0 287 604" fill="none" xmlns="http://www.w3.org/2000/svg">
<rect width="287" height="604" rx="40" fill="white"/>
<path d="M75.352 271L71.144 259.8H72.632L76.088 269.32L79.56 259.8H81.048L76.84 271H75.352ZM82.1799 259.672H83.7479V261.4H82.1799V259.672ZM82.2759 271V262.936H83.6359V271H82.2759ZM89.2624 271.128C86.7504 271.128 85.3744 269.336 85.3744 266.968C85.3744 264.6 86.7504 262.808 89.2464 262.808C90.3184 262.808 91.3744 263.336 91.8864 264.088V259.672H93.2464V271H91.8864V269.832C91.5184 270.568 90.4464 271.128 89.2624 271.128ZM89.3904 269.912C90.9744 269.912 92.0144 268.744 92.0144 266.968C92.0144 265.192 90.9744 264.024 89.3904 264.024C87.8064 264.024 86.7664 265.192 86.7664 266.968C86.7664 268.744 87.8064 269.912 89.3904 269.912ZM102.744 266.6C102.744 266.792 102.728 267.08 102.712 267.224H96.3438C96.4398 268.856 97.4638 269.928 98.9198 269.928C100.152 269.928 101 269.352 101.24 268.344L102.52 268.648C102.12 270.216 100.776 271.128 98.9198 271.128C96.5038 271.128 94.9838 269.256 94.9838 266.968C94.9838 264.68 96.4557 262.808 98.8878 262.808C101.272 262.808 102.744 264.52 102.744 266.6ZM96.4238 266.088H101.304C101.176 264.856 100.312 263.944 98.8878 263.944C97.6238 263.944 96.6957 264.744 96.4238 266.088ZM108.127 271.128C105.727 271.128 104.031 269.384 104.031 266.968C104.031 264.552 105.727 262.808 108.127 262.808C110.511 262.808 112.239 264.552 112.239 266.968C112.239 269.384 110.511 271.128 108.127 271.128ZM108.127 269.912C109.743 269.912 110.831 268.696 110.831 266.968C110.831 265.24 109.743 264.024 108.127 264.024C106.511 264.024 105.423 265.24 105.423 266.968C105.423 268.696 106.511 269.912 108.127 269.912ZM125.566 271L124.462 268.152H119.486L118.382 271H116.878L121.31 259.8H122.638L127.086 271H125.566ZM119.982 266.856H123.966L121.982 261.72L119.982 266.856ZM135.206 262.936V271H133.846V269.48C133.286 270.44 132.31 271.128 131.078 271.128C129.398 271.128 128.198 269.992 128.198 268.28V262.936H129.558V268.024C129.558 269.112 130.246 269.896 131.382 269.896C132.886 269.896 133.846 268.6 133.846 266.472V262.936H135.206ZM141.705 270.936C141.305 271.08 140.873 271.128 140.441 271.128C139.065 271.128 138.057 270.36 138.057 268.584V264.136H136.553V262.936H138.057V260.488H139.417V262.936H141.577V264.136H139.417V268.632C139.417 269.48 139.897 269.896 140.601 269.896C140.921 269.896 141.289 269.848 141.609 269.688L141.705 270.936ZM146.72 271.128C144.32 271.128 142.624 269.384 142.624 266.968C142.624 264.552 144.32 262.808 146.72 262.808C149.104 262.808 150.832 264.552 150.832 266.968C150.832 269.384 149.104 271.128 146.72 271.128ZM146.72 269.912C148.336 269.912 149.424 268.696 149.424 266.968C149.424 265.24 148.336 264.024 146.72 264.024C145.104 264.024 144.016 265.24 144.016 266.968C144.016 268.696 145.104 269.912 146.72 269.912ZM156.432 271V259.672H157.792V271H156.432ZM163.627 271.128C161.227 271.128 159.531 269.384 159.531 266.968C159.531 264.552 161.227 262.808 163.627 262.808C166.011 262.808 167.739 264.552 167.739 266.968C167.739 269.384 166.011 271.128 163.627 271.128ZM163.627 269.912C165.243 269.912 166.331 268.696 166.331 266.968C166.331 265.24 165.243 264.024 163.627 264.024C162.011 264.024 160.923 265.24 160.923 266.968C160.923 268.696 162.011 269.912 163.627 269.912ZM173.111 271.128C170.711 271.128 169.015 269.384 169.015 266.968C169.015 264.552 170.711 262.808 173.111 262.808C175.495 262.808 177.223 264.552 177.223 266.968C177.223 269.384 175.495 271.128 173.111 271.128ZM173.111 269.912C174.727 269.912 175.815 268.696 175.815 266.968C175.815 265.24 174.727 264.024 173.111 264.024C171.495 264.024 170.407 265.24 170.407 266.968C170.407 268.696 171.495 269.912 173.111 269.912ZM178.963 273.912V262.936H180.323V264.104C180.755 263.368 181.811 262.808 182.979 262.808C185.459 262.808 186.835 264.6 186.835 266.968C186.835 269.336 185.427 271.128 182.947 271.128C181.923 271.128 180.867 270.616 180.323 269.88V273.912H178.963ZM182.819 269.912C184.419 269.912 185.459 268.744 185.459 266.968C185.459 265.192 184.419 264.024 182.819 264.024C181.251 264.024 180.211 265.192 180.211 266.968C180.211 268.744 181.251 269.912 182.819 269.912ZM192.432 273.912V262.936H193.792V264.104C194.224 263.368 195.28 262.808 196.448 262.808C198.928 262.808 200.304 264.6 200.304 266.968C200.304 269.336 198.896 271.128 196.416 271.128C195.392 271.128 194.336 270.616 193.792 269.88V273.912H192.432ZM196.288 269.912C197.888 269.912 198.928 268.744 198.928 266.968C198.928 265.192 197.888 264.024 196.288 264.024C194.72 264.024 193.68 265.192 193.68 266.968C193.68 268.744 194.72 269.912 196.288 269.912ZM202.042 271V259.672H203.402V271H202.042ZM208.612 262.808C210.564 262.808 211.924 263.96 211.924 265.832V271H210.58V269.624C210.116 270.552 209.06 271.128 207.892 271.128C206.276 271.128 205.172 270.136 205.172 268.744C205.172 267.192 206.436 266.344 209.012 266.088L210.58 265.912V265.752C210.58 264.648 209.796 263.944 208.612 263.944C207.508 263.944 206.724 264.6 206.612 265.688L205.348 265.448C205.588 263.848 206.916 262.808 208.612 262.808ZM208.1 270.008C209.668 270.008 210.58 268.968 210.58 267.352V266.968L209.012 267.144C207.38 267.32 206.532 267.88 206.532 268.728C206.532 269.48 207.172 270.008 208.1 270.008ZM219.182 262.936H220.574L216.35 273.912H214.958L216.126 270.888L212.974 262.936H214.446L216.814 269.112L219.182 262.936Z" fill="black"/>
</svg>
