<svg width="96" height="92" viewBox="0 0 96 92" fill="none" xmlns="http://www.w3.org/2000/svg">
<g filter="url(#filter0_i_1494_404)">
<rect width="96" height="91.65" rx="12" fill="#6587FF"/>
</g>
<g filter="url(#filter1_b_1494_404)">
<ellipse cx="47.5892" cy="45.7632" rx="28.9852" ry="28.3813" fill="url(#paint0_linear_1494_404)" fill-opacity="0.75"/>
<path d="M75.5744 45.7632C75.5744 60.8657 63.0649 73.1445 47.5892 73.1445C32.1134 73.1445 19.604 60.8657 19.604 45.7632C19.604 30.6606 32.1134 18.3818 47.5892 18.3818C63.0649 18.3818 75.5744 30.6606 75.5744 45.7632Z" stroke="url(#paint1_linear_1494_404)" stroke-width="2"/>
</g>
<path fill-rule="evenodd" clip-rule="evenodd" d="M58.1389 40.6389C59.0774 39.72 58.6641 37.8254 57.2157 36.4072C55.7674 34.9891 53.8325 34.5844 52.894 35.5033C52.892 35.5053 52.8901 35.5072 52.8881 35.5091L39.6394 48.4819L39.6394 48.4819L38.2968 54.9321L44.8843 53.6175L44.8843 53.6174L58.1389 40.639L58.1389 40.6389Z" fill="white"/>
<defs>
<filter id="filter0_i_1494_404" x="0" y="0" width="100" height="95.6504" filterUnits="userSpaceOnUse" color-interpolation-filters="sRGB">
<feFlood flood-opacity="0" result="BackgroundImageFix"/>
<feBlend mode="normal" in="SourceGraphic" in2="BackgroundImageFix" result="shape"/>
<feColorMatrix in="SourceAlpha" type="matrix" values="0 0 0 0 0 0 0 0 0 0 0 0 0 0 0 0 0 0 127 0" result="hardAlpha"/>
<feOffset dx="4" dy="4"/>
<feGaussianBlur stdDeviation="2"/>
<feComposite in2="hardAlpha" operator="arithmetic" k2="-1" k3="1"/>
<feColorMatrix type="matrix" values="0 0 0 0 1 0 0 0 0 1 0 0 0 0 1 0 0 0 0.25 0"/>
<feBlend mode="normal" in2="shape" result="effect1_innerShadow_1494_404"/>
</filter>
<filter id="filter1_b_1494_404" x="14.604" y="13.3818" width="65.9702" height="64.7627" filterUnits="userSpaceOnUse" color-interpolation-filters="sRGB">
<feFlood flood-opacity="0" result="BackgroundImageFix"/>
<feGaussianBlur in="BackgroundImageFix" stdDeviation="2"/>
<feComposite in2="SourceAlpha" operator="in" result="effect1_backgroundBlur_1494_404"/>
<feBlend mode="normal" in="SourceGraphic" in2="effect1_backgroundBlur_1494_404" result="shape"/>
</filter>
<linearGradient id="paint0_linear_1494_404" x1="76.5744" y1="17.3818" x2="19.8243" y2="75.3394" gradientUnits="userSpaceOnUse">
<stop stop-color="white"/>
<stop offset="1" stop-color="white" stop-opacity="0"/>
</linearGradient>
<linearGradient id="paint1_linear_1494_404" x1="76.5744" y1="17.3818" x2="27.9484" y2="67.8701" gradientUnits="userSpaceOnUse">
<stop stop-color="white" stop-opacity="0"/>
<stop offset="0.703965" stop-color="white" stop-opacity="0.3"/>
<stop offset="1" stop-color="white"/>
</linearGradient>
</defs>
</svg>
