<svg width="291" height="67" viewBox="0 0 291 67" fill="none" xmlns="http://www.w3.org/2000/svg">
<rect x="6" y="6" width="279" height="55" rx="10" fill="#80FB8D" stroke="white" stroke-width="12"/>
<path d="M48.1284 40.144C51.0264 40.144 53.0784 38.65 53.6904 36.184L51.2244 35.644C50.9004 37.12 49.7664 38.02 48.1284 38.02C45.9864 38.02 44.3484 36.526 44.3484 33.7C44.3484 30.874 46.0044 29.362 48.1284 29.362C49.7484 29.362 50.9724 30.352 51.2964 31.954L53.7264 31.45C53.2944 28.912 51.1524 27.256 48.1284 27.256C44.8524 27.256 41.8644 29.434 41.8644 33.7C41.8644 37.966 44.7984 40.144 48.1284 40.144ZM61.3308 33.124L61.4748 30.928C61.2048 30.838 60.8088 30.784 60.4848 30.784C59.3868 30.784 58.1988 31.558 57.7488 32.584V30.928H55.4808V40H57.7488V36.67C57.7488 33.97 58.9008 32.908 60.1788 32.908C60.5748 32.908 61.0068 32.98 61.3308 33.124ZM66.0392 30.784C64.1132 30.784 62.5112 31.936 62.2232 33.736L64.2392 34.096C64.3472 33.124 65.0492 32.512 66.0392 32.512C67.1372 32.512 67.8392 33.142 67.8392 34.168V34.258L66.1472 34.42C63.4472 34.708 62.0972 35.662 62.0972 37.444C62.0972 38.992 63.3392 40.144 65.1212 40.144C66.2372 40.144 67.3352 39.568 67.8392 38.686V40H70.0352V34.474C70.0352 32.062 68.4152 30.784 66.0392 30.784ZM65.6252 38.47C64.7972 38.47 64.2932 38.002 64.2932 37.372C64.2932 36.724 64.9052 36.22 66.1112 36.076L67.8392 35.878V36.076C67.8392 37.408 67.0292 38.47 65.6252 38.47ZM72.7963 40H75.0643V32.836H77.2243V30.928H75.0643V30.226C75.0643 29.38 75.5503 28.84 76.3063 28.84C76.5943 28.84 76.9003 28.894 77.2063 29.02L77.3683 27.148C76.9363 27.022 76.4683 26.95 76.0003 26.95C74.1643 26.95 72.7963 28.102 72.7963 30.226V30.928H71.3383V32.836H72.7963V40ZM84.2417 39.91L84.0797 37.93C83.7557 38.092 83.3597 38.146 83.0177 38.146C82.3157 38.146 81.8477 37.678 81.8477 36.814V32.836H84.1337V30.928H81.8477V28.264H79.5797V30.928H78.0497V32.836H79.5797V37.03C79.5797 39.154 80.9477 40.144 82.7837 40.144C83.3057 40.144 83.7917 40.072 84.2417 39.91ZM86.9371 29.542C87.7651 29.542 88.3771 28.93 88.3771 28.138C88.3771 27.364 87.7651 26.752 86.9371 26.752C86.1271 26.752 85.5331 27.364 85.5331 28.138C85.5331 28.93 86.1271 29.542 86.9371 29.542ZM85.8031 40H88.0711V30.928H85.8031V40ZM90.2679 40H92.5359V36.022C92.5359 33.988 93.3459 32.8 94.7319 32.8C95.7939 32.8 96.4599 33.538 96.4599 34.6V40H98.7279V34.06C98.7279 32.08 97.3959 30.784 95.4159 30.784C94.1379 30.784 93.1119 31.414 92.5359 32.296V30.928H90.2679V40ZM107.166 30.928V31.846C106.662 31.216 105.726 30.784 104.61 30.784C102 30.784 100.434 32.584 100.434 35.266C100.434 37.93 102 39.73 104.664 39.73C105.744 39.73 106.734 39.316 107.184 38.668V39.658C107.184 40.828 106.284 41.602 104.916 41.602C103.854 41.602 102.99 41.098 102.882 40.252L100.776 40.594C101.082 42.286 102.792 43.42 104.916 43.42C107.616 43.42 109.416 41.818 109.416 39.424V30.928H107.166ZM104.988 37.768C103.602 37.768 102.684 36.778 102.684 35.266C102.684 33.736 103.602 32.746 104.988 32.746C106.392 32.746 107.31 33.736 107.31 35.266C107.31 36.778 106.392 37.768 104.988 37.768ZM121.656 40.144C123.186 40.144 124.572 39.496 125.13 38.47V40H127.344V33.268H121.332V35.248H125.076C124.95 36.886 123.672 38.02 121.764 38.02C119.55 38.02 117.948 36.454 117.948 33.7C117.948 30.946 119.55 29.362 121.8 29.362C123.492 29.362 124.752 30.37 125.058 31.954L127.47 31.45C126.984 28.84 124.842 27.256 121.818 27.256C118.524 27.256 115.482 29.398 115.482 33.7C115.482 38.002 118.452 40.144 121.656 40.144ZM135.335 33.124L135.479 30.928C135.209 30.838 134.813 30.784 134.489 30.784C133.391 30.784 132.203 31.558 131.753 32.584V30.928H129.485V40H131.753V36.67C131.753 33.97 132.905 32.908 134.183 32.908C134.579 32.908 135.011 32.98 135.335 33.124ZM145.031 35.158C145.031 33.052 143.537 30.784 140.477 30.784C137.471 30.784 135.995 33.106 135.995 35.464C135.995 37.822 137.597 40.144 140.603 40.144C142.727 40.144 144.311 39.136 144.815 37.426L142.691 36.85C142.457 37.732 141.701 38.236 140.639 38.236C139.343 38.236 138.461 37.426 138.263 36.058H144.995C145.013 35.878 145.031 35.482 145.031 35.158ZM138.317 34.402C138.569 33.178 139.361 32.512 140.477 32.512C141.791 32.512 142.493 33.322 142.601 34.402H138.317ZM150.203 30.784C148.277 30.784 146.675 31.936 146.387 33.736L148.403 34.096C148.511 33.124 149.213 32.512 150.203 32.512C151.301 32.512 152.003 33.142 152.003 34.168V34.258L150.311 34.42C147.611 34.708 146.261 35.662 146.261 37.444C146.261 38.992 147.503 40.144 149.285 40.144C150.401 40.144 151.499 39.568 152.003 38.686V40H154.199V34.474C154.199 32.062 152.579 30.784 150.203 30.784ZM149.789 38.47C148.961 38.47 148.457 38.002 148.457 37.372C148.457 36.724 149.069 36.22 150.275 36.076L152.003 35.878V36.076C152.003 37.408 151.193 38.47 149.789 38.47ZM161.638 39.91L161.476 37.93C161.152 38.092 160.756 38.146 160.414 38.146C159.712 38.146 159.244 37.678 159.244 36.814V32.836H161.53V30.928H159.244V28.264H156.976V30.928H155.446V32.836H156.976V37.03C156.976 39.154 158.344 40.144 160.18 40.144C160.702 40.144 161.188 40.072 161.638 39.91ZM167.614 40H170.062V27.4H167.614V40ZM172.34 40H174.608V36.022C174.608 33.988 175.418 32.8 176.804 32.8C177.866 32.8 178.532 33.538 178.532 34.6V40H180.8V34.06C180.8 32.08 179.468 30.784 177.488 30.784C176.21 30.784 175.184 31.414 174.608 32.296V30.928H172.34V40ZM188.076 39.91L187.914 37.93C187.59 38.092 187.194 38.146 186.852 38.146C186.15 38.146 185.682 37.678 185.682 36.814V32.836H187.968V30.928H185.682V28.264H183.414V30.928H181.884V32.836H183.414V37.03C183.414 39.154 184.782 40.144 186.618 40.144C187.14 40.144 187.626 40.072 188.076 39.91ZM198.011 35.158C198.011 33.052 196.517 30.784 193.457 30.784C190.451 30.784 188.975 33.106 188.975 35.464C188.975 37.822 190.577 40.144 193.583 40.144C195.707 40.144 197.291 39.136 197.795 37.426L195.671 36.85C195.437 37.732 194.681 38.236 193.619 38.236C192.323 38.236 191.441 37.426 191.243 36.058H197.975C197.993 35.878 198.011 35.482 198.011 35.158ZM191.297 34.402C191.549 33.178 192.341 32.512 193.457 32.512C194.771 32.512 195.473 33.322 195.581 34.402H191.297ZM205.577 33.124L205.721 30.928C205.451 30.838 205.055 30.784 204.731 30.784C203.633 30.784 202.445 31.558 201.995 32.584V30.928H199.727V40H201.995V36.67C201.995 33.97 203.147 32.908 204.425 32.908C204.821 32.908 205.253 32.98 205.577 33.124ZM207.937 40H210.205V32.836H212.365V30.928H210.205V30.226C210.205 29.38 210.691 28.84 211.447 28.84C211.735 28.84 212.041 28.894 212.347 29.02L212.509 27.148C212.077 27.022 211.609 26.95 211.141 26.95C209.305 26.95 207.937 28.102 207.937 30.226V30.928H206.479V32.836H207.937V40ZM217.088 30.784C215.162 30.784 213.56 31.936 213.272 33.736L215.288 34.096C215.396 33.124 216.098 32.512 217.088 32.512C218.186 32.512 218.888 33.142 218.888 34.168V34.258L217.196 34.42C214.496 34.708 213.146 35.662 213.146 37.444C213.146 38.992 214.388 40.144 216.17 40.144C217.286 40.144 218.384 39.568 218.888 38.686V40H221.084V34.474C221.084 32.062 219.464 30.784 217.088 30.784ZM216.674 38.47C215.846 38.47 215.342 38.002 215.342 37.372C215.342 36.724 215.954 36.22 217.16 36.076L218.888 35.878V36.076C218.888 37.408 218.078 38.47 216.674 38.47ZM227.421 40.144C229.707 40.144 231.345 38.992 231.687 37.084L229.473 36.634C229.257 37.606 228.555 38.182 227.493 38.182C226.089 38.182 225.171 37.12 225.171 35.464C225.171 33.808 226.089 32.746 227.493 32.746C228.555 32.746 229.311 33.394 229.473 34.348L231.687 33.916C231.381 31.99 229.743 30.784 227.421 30.784C224.703 30.784 222.813 32.692 222.813 35.464C222.813 38.236 224.703 40.144 227.421 40.144ZM241.939 35.158C241.939 33.052 240.445 30.784 237.385 30.784C234.379 30.784 232.903 33.106 232.903 35.464C232.903 37.822 234.505 40.144 237.511 40.144C239.635 40.144 241.219 39.136 241.723 37.426L239.599 36.85C239.365 37.732 238.609 38.236 237.547 38.236C236.251 38.236 235.369 37.426 235.171 36.058H241.903C241.921 35.878 241.939 35.482 241.939 35.158ZM235.225 34.402C235.477 33.178 236.269 32.512 237.385 32.512C238.699 32.512 239.401 33.322 239.509 34.402H235.225ZM246.735 40.144C248.823 40.144 250.227 38.884 250.227 37.318C250.227 33.61 245.241 34.888 245.241 33.286C245.241 32.764 245.727 32.458 246.447 32.458C247.185 32.458 247.977 32.908 248.229 33.772L250.065 32.998C249.669 31.684 248.175 30.784 246.411 30.784C244.431 30.784 243.189 31.9 243.189 33.322C243.189 36.76 248.139 35.644 248.139 37.354C248.139 37.93 247.581 38.38 246.735 38.38C245.601 38.38 244.899 37.624 244.629 36.706L242.775 37.462C243.225 38.794 244.539 40.144 246.735 40.144Z" fill="#181818"/>
</svg>
