<svg width="136" height="136" viewBox="0 0 136 136" fill="none" xmlns="http://www.w3.org/2000/svg">
<g filter="url(#filter0_i_1494_403)">
<rect width="136" height="136" rx="12" fill="#FF5975"/>
</g>
<g filter="url(#filter1_b_1494_403)">
<circle cx="67.9321" cy="68.2944" r="39.7378" fill="url(#paint0_linear_1494_403)" fill-opacity="0.75"/>
<circle cx="67.9321" cy="68.2944" r="38.2378" stroke="url(#paint1_linear_1494_403)" stroke-width="3"/>
</g>
<path fill-rule="evenodd" clip-rule="evenodd" d="M89.6646 68.2674C89.6646 80.0847 80.0847 89.6646 68.2674 89.6646L68.252 89.6646C68.2605 89.6646 68.2674 89.6577 68.2673 89.6492L68.2546 82.1094C68.2444 76.1428 61.6278 72.5592 56.6251 75.8108C53.1394 78.0763 48.3174 77.0699 47.3988 73.0155C47.0528 71.4883 46.8701 69.8992 46.8701 68.2674C46.8701 56.45 56.45 46.8701 68.2674 46.8701C80.0847 46.8701 89.6646 56.45 89.6646 68.2674ZM53.6783 73.1304C55.2897 73.1304 56.5961 71.824 56.5961 70.2126C56.5961 68.6011 55.2897 67.2948 53.6783 67.2948C52.0668 67.2948 50.7605 68.6011 50.7605 70.2126C50.7605 71.824 52.0668 73.1304 53.6783 73.1304ZM60.4865 60.4866C60.4865 62.098 59.1802 63.4044 57.5687 63.4044C55.9572 63.4044 54.6509 62.098 54.6509 60.4866C54.6509 58.8751 55.9572 57.5687 57.5687 57.5687C59.1802 57.5687 60.4865 58.8751 60.4865 60.4866ZM65.3494 57.5688C66.9608 57.5688 68.2672 56.2624 68.2672 54.651C68.2672 53.0395 66.9608 51.7331 65.3494 51.7331C63.7379 51.7331 62.4316 53.0395 62.4316 54.651C62.4316 56.2624 63.7379 57.5688 65.3494 57.5688ZM77.9933 56.5961C77.9933 58.2076 76.6869 59.514 75.0754 59.514C73.464 59.514 72.1576 58.2076 72.1576 56.5961C72.1576 54.9847 73.464 53.6783 75.0754 53.6783C76.6869 53.6783 77.9933 54.9847 77.9933 56.5961ZM81.8837 66.3222C83.4952 66.3222 84.8015 65.0158 84.8015 63.4044C84.8015 61.7929 83.4952 60.4866 81.8837 60.4866C80.2722 60.4866 78.9659 61.7929 78.9659 63.4044C78.9659 65.0158 80.2722 66.3222 81.8837 66.3222ZM84.8015 72.1578C84.8015 73.7692 83.4952 75.0756 81.8837 75.0756C80.2722 75.0756 78.9659 73.7692 78.9659 72.1578C78.9659 70.5463 80.2722 69.24 81.8837 69.24C83.4952 69.24 84.8015 70.5463 84.8015 72.1578ZM76.0481 82.8564C77.6595 82.8564 78.9659 81.5501 78.9659 79.9386C78.9659 78.3271 77.6595 77.0208 76.0481 77.0208C74.4366 77.0208 73.1302 78.3271 73.1302 79.9386C73.1302 81.5501 74.4366 82.8564 76.0481 82.8564Z" fill="white"/>
<defs>
<filter id="filter0_i_1494_403" x="0" y="0" width="148" height="148" filterUnits="userSpaceOnUse" color-interpolation-filters="sRGB">
<feFlood flood-opacity="0" result="BackgroundImageFix"/>
<feBlend mode="normal" in="SourceGraphic" in2="BackgroundImageFix" result="shape"/>
<feColorMatrix in="SourceAlpha" type="matrix" values="0 0 0 0 0 0 0 0 0 0 0 0 0 0 0 0 0 0 127 0" result="hardAlpha"/>
<feOffset dx="12" dy="12"/>
<feGaussianBlur stdDeviation="12"/>
<feComposite in2="hardAlpha" operator="arithmetic" k2="-1" k3="1"/>
<feColorMatrix type="matrix" values="0 0 0 0 1 0 0 0 0 0.735 0 0 0 0 0.755921 0 0 0 0.49 0"/>
<feBlend mode="normal" in2="shape" result="effect1_innerShadow_1494_403"/>
</filter>
<filter id="filter1_b_1494_403" x="24.1943" y="24.5566" width="87.4756" height="87.4756" filterUnits="userSpaceOnUse" color-interpolation-filters="sRGB">
<feFlood flood-opacity="0" result="BackgroundImageFix"/>
<feGaussianBlur in="BackgroundImageFix" stdDeviation="2"/>
<feComposite in2="SourceAlpha" operator="in" result="effect1_backgroundBlur_1494_403"/>
<feBlend mode="normal" in="SourceGraphic" in2="effect1_backgroundBlur_1494_403" result="shape"/>
</filter>
<linearGradient id="paint0_linear_1494_403" x1="107.67" y1="28.5566" x2="28.1943" y2="108.032" gradientUnits="userSpaceOnUse">
<stop stop-color="white"/>
<stop offset="1" stop-color="white" stop-opacity="0"/>
</linearGradient>
<linearGradient id="paint1_linear_1494_403" x1="107.67" y1="28.5566" x2="39.548" y2="97.8139" gradientUnits="userSpaceOnUse">
<stop stop-color="white" stop-opacity="0"/>
<stop offset="0.703965" stop-color="white" stop-opacity="0.3"/>
<stop offset="1" stop-color="white"/>
</linearGradient>
</defs>
</svg>
