<svg width="124" height="124" viewBox="0 0 124 124" fill="none" xmlns="http://www.w3.org/2000/svg">
<g filter="url(#filter0_i_1494_398)">
<rect width="124" height="124" rx="12" fill="#FF5975"/>
</g>
<path fill-rule="evenodd" clip-rule="evenodd" d="M67.82 89.7949H47.5931V89.7948H36.1608C27.904 89.7948 21.2104 83.1013 21.2104 74.8445C21.2104 66.8696 27.4545 60.3532 35.3205 59.9174C34.723 57.963 34.4015 55.8882 34.4015 53.7382C34.4015 42.0815 43.8512 32.6318 55.5079 32.6318C65.4244 32.6318 73.7437 39.4706 76.0066 48.6892C78.1299 47.9713 80.4047 47.5821 82.7704 47.5821C94.4272 47.5821 103.877 57.0318 103.877 68.6885C103.877 80.3453 94.4272 89.7949 82.7704 89.7949L67.82 89.7949Z" fill="url(#paint0_linear_1494_398)"/>
<defs>
<filter id="filter0_i_1494_398" x="0" y="0" width="136" height="136" filterUnits="userSpaceOnUse" color-interpolation-filters="sRGB">
<feFlood flood-opacity="0" result="BackgroundImageFix"/>
<feBlend mode="normal" in="SourceGraphic" in2="BackgroundImageFix" result="shape"/>
<feColorMatrix in="SourceAlpha" type="matrix" values="0 0 0 0 0 0 0 0 0 0 0 0 0 0 0 0 0 0 127 0" result="hardAlpha"/>
<feOffset dx="12" dy="12"/>
<feGaussianBlur stdDeviation="12"/>
<feComposite in2="hardAlpha" operator="arithmetic" k2="-1" k3="1"/>
<feColorMatrix type="matrix" values="0 0 0 0 1 0 0 0 0 0.735 0 0 0 0 0.755921 0 0 0 0.49 0"/>
<feBlend mode="normal" in2="shape" result="effect1_innerShadow_1494_398"/>
</filter>
<linearGradient id="paint0_linear_1494_398" x1="25.516" y1="32.6318" x2="115.933" y2="103.243" gradientUnits="userSpaceOnUse">
<stop stop-color="white"/>
<stop offset="1" stop-color="white" stop-opacity="0"/>
</linearGradient>
</defs>
</svg>
