<svg width="291" height="67" viewBox="0 0 291 67" fill="none" xmlns="http://www.w3.org/2000/svg">
<rect x="6" y="6" width="279" height="55" rx="10" fill="#80FB8D" stroke="white" stroke-width="12"/>
<path d="M81.2925 40.144C79.9965 40.144 78.9165 39.808 78.0525 39.136C77.2005 38.452 76.7145 37.552 76.5945 36.436L78.8265 36.076C78.9225 36.664 79.1925 37.138 79.6365 37.498C80.0925 37.846 80.6505 38.02 81.3105 38.02C82.0065 38.02 82.5645 37.828 82.9845 37.444C83.4165 37.06 83.6325 36.556 83.6325 35.932C83.6325 35.284 83.4285 34.774 83.0205 34.402C82.6125 34.03 82.0605 33.844 81.3645 33.844C80.8125 33.844 80.3385 33.982 79.9425 34.258L78.9885 32.656L82.4445 29.506H76.9545V27.4H85.3065V29.38L82.0845 32.26C83.2725 32.212 84.2325 32.53 84.9645 33.214C85.7085 33.886 86.0805 34.81 86.0805 35.986C86.0805 37.234 85.6425 38.242 84.7665 39.01C83.8905 39.766 82.7325 40.144 81.2925 40.144ZM92.2388 40V27.4H94.9928L98.8448 36.526L102.697 27.4H105.451V40H103.147V31.954L99.7628 40H97.9268L94.5428 31.954V40H92.2388ZM109.901 29.146C109.625 29.41 109.283 29.542 108.875 29.542C108.467 29.542 108.131 29.41 107.867 29.146C107.603 28.87 107.471 28.534 107.471 28.138C107.471 27.742 107.603 27.412 107.867 27.148C108.131 26.884 108.467 26.752 108.875 26.752C109.283 26.752 109.625 26.89 109.901 27.166C110.177 27.43 110.315 27.754 110.315 28.138C110.315 28.534 110.177 28.87 109.901 29.146ZM107.741 40V30.928H110.009V40H107.741ZM112.205 40V27.256H114.473V40H112.205ZM116.67 40V27.256H118.938V40H116.67ZM123.295 29.146C123.019 29.41 122.677 29.542 122.269 29.542C121.861 29.542 121.525 29.41 121.261 29.146C120.997 28.87 120.865 28.534 120.865 28.138C120.865 27.742 120.997 27.412 121.261 27.148C121.525 26.884 121.861 26.752 122.269 26.752C122.677 26.752 123.019 26.89 123.295 27.166C123.571 27.43 123.709 27.754 123.709 28.138C123.709 28.534 123.571 28.87 123.295 29.146ZM121.135 40V30.928H123.403V40H121.135ZM133.25 38.83C132.362 39.706 131.228 40.144 129.848 40.144C128.468 40.144 127.334 39.706 126.446 38.83C125.558 37.942 125.114 36.82 125.114 35.464C125.114 34.108 125.558 32.992 126.446 32.116C127.334 31.228 128.468 30.784 129.848 30.784C131.228 30.784 132.362 31.228 133.25 32.116C134.138 32.992 134.582 34.108 134.582 35.464C134.582 36.82 134.138 37.942 133.25 38.83ZM128.066 37.444C128.522 37.936 129.116 38.182 129.848 38.182C130.58 38.182 131.168 37.93 131.612 37.426C132.068 36.922 132.296 36.268 132.296 35.464C132.296 34.66 132.068 34.006 131.612 33.502C131.168 32.998 130.58 32.746 129.848 32.746C129.116 32.746 128.522 32.998 128.066 33.502C127.622 33.994 127.4 34.648 127.4 35.464C127.4 36.28 127.622 36.94 128.066 37.444ZM136.287 40V30.928H138.555V32.296C138.855 31.84 139.251 31.474 139.743 31.198C140.247 30.922 140.811 30.784 141.435 30.784C142.431 30.784 143.229 31.084 143.829 31.684C144.441 32.284 144.747 33.076 144.747 34.06V40H142.479V34.6C142.479 34.06 142.323 33.628 142.011 33.304C141.699 32.968 141.279 32.8 140.751 32.8C140.055 32.8 139.515 33.082 139.131 33.646C138.747 34.21 138.555 35.002 138.555 36.022V40H136.287ZM154.882 40L150.292 27.4H152.794L156.052 37.084L159.346 27.4H161.83L157.24 40H154.882ZM165.219 29.146C164.943 29.41 164.601 29.542 164.193 29.542C163.785 29.542 163.449 29.41 163.185 29.146C162.921 28.87 162.789 28.534 162.789 28.138C162.789 27.742 162.921 27.412 163.185 27.148C163.449 26.884 163.785 26.752 164.193 26.752C164.601 26.752 164.943 26.89 165.219 27.166C165.495 27.43 165.633 27.754 165.633 28.138C165.633 28.534 165.495 28.87 165.219 29.146ZM163.059 40V30.928H165.327V40H163.059ZM176.074 35.158C176.074 35.518 176.062 35.818 176.038 36.058H169.306C169.402 36.742 169.66 37.276 170.08 37.66C170.5 38.044 171.034 38.236 171.682 38.236C172.21 38.236 172.654 38.116 173.014 37.876C173.374 37.636 173.614 37.294 173.734 36.85L175.858 37.426C175.606 38.278 175.108 38.944 174.364 39.424C173.62 39.904 172.714 40.144 171.646 40.144C170.218 40.144 169.09 39.682 168.262 38.758C167.446 37.822 167.038 36.724 167.038 35.464C167.038 34.192 167.428 33.094 168.208 32.17C169 31.246 170.104 30.784 171.52 30.784C172.96 30.784 174.076 31.228 174.868 32.116C175.672 32.992 176.074 34.006 176.074 35.158ZM169.36 34.402H173.644C173.584 33.838 173.374 33.382 173.014 33.034C172.654 32.686 172.156 32.512 171.52 32.512C170.956 32.512 170.482 32.674 170.098 32.998C169.726 33.322 169.48 33.79 169.36 34.402ZM179.579 40L176.753 30.928H179.039L180.605 36.832L182.423 30.928H184.493L186.311 36.832L187.859 30.928H190.145L187.337 40H185.303L183.467 34.078L181.595 40H179.579ZM199.857 35.158C199.857 35.518 199.845 35.818 199.821 36.058H193.089C193.185 36.742 193.443 37.276 193.863 37.66C194.283 38.044 194.817 38.236 195.465 38.236C195.993 38.236 196.437 38.116 196.797 37.876C197.157 37.636 197.397 37.294 197.517 36.85L199.641 37.426C199.389 38.278 198.891 38.944 198.147 39.424C197.403 39.904 196.497 40.144 195.429 40.144C194.001 40.144 192.873 39.682 192.045 38.758C191.229 37.822 190.821 36.724 190.821 35.464C190.821 34.192 191.211 33.094 191.991 32.17C192.783 31.246 193.887 30.784 195.303 30.784C196.743 30.784 197.859 31.228 198.651 32.116C199.455 32.992 199.857 34.006 199.857 35.158ZM193.143 34.402H197.427C197.367 33.838 197.157 33.382 196.797 33.034C196.437 32.686 195.939 32.512 195.303 32.512C194.739 32.512 194.265 32.674 193.881 32.998C193.509 33.322 193.263 33.79 193.143 34.402ZM207.423 33.124C207.099 32.98 206.715 32.908 206.271 32.908C205.575 32.908 204.993 33.22 204.525 33.844C204.069 34.456 203.841 35.398 203.841 36.67V40H201.573V30.928H203.841V32.584C204.069 32.068 204.441 31.642 204.957 31.306C205.485 30.958 206.025 30.784 206.577 30.784C206.949 30.784 207.279 30.832 207.567 30.928L207.423 33.124ZM211.825 40.144C210.805 40.144 209.953 39.886 209.269 39.37C208.585 38.842 208.117 38.206 207.865 37.462L209.719 36.706C209.863 37.198 210.115 37.6 210.475 37.912C210.835 38.224 211.285 38.38 211.825 38.38C212.245 38.38 212.581 38.284 212.833 38.092C213.097 37.888 213.229 37.642 213.229 37.354C213.229 37.042 213.055 36.796 212.707 36.616C212.371 36.436 211.963 36.292 211.483 36.184C211.003 36.064 210.517 35.92 210.025 35.752C209.545 35.584 209.131 35.296 208.783 34.888C208.447 34.48 208.279 33.958 208.279 33.322C208.279 32.59 208.573 31.984 209.161 31.504C209.749 31.024 210.529 30.784 211.501 30.784C212.389 30.784 213.169 30.988 213.841 31.396C214.525 31.804 214.963 32.338 215.155 32.998L213.319 33.772C213.199 33.364 212.971 33.046 212.635 32.818C212.299 32.578 211.933 32.458 211.537 32.458C211.177 32.458 210.883 32.536 210.655 32.692C210.439 32.836 210.331 33.034 210.331 33.286C210.331 33.574 210.499 33.796 210.835 33.952C211.183 34.108 211.597 34.24 212.077 34.348C212.569 34.444 213.061 34.576 213.553 34.744C214.045 34.912 214.459 35.212 214.795 35.644C215.143 36.076 215.317 36.634 215.317 37.318C215.317 38.11 214.993 38.782 214.345 39.334C213.697 39.874 212.857 40.144 211.825 40.144Z" fill="#181818"/>
</svg>
