<svg width="1283" height="660" viewBox="0 0 1283 660" fill="none" xmlns="http://www.w3.org/2000/svg">
<circle cx="216.5" cy="131.5" r="2.5" fill="white" fill-opacity="0.5"/>
<circle cx="253.5" cy="42.5" r="2.5" fill="white" fill-opacity="0.5"/>
<circle cx="100.5" cy="2.5" r="2.5" fill="white" fill-opacity="0.5"/>
<circle cx="44.5" cy="189.5" r="2.5" fill="white" fill-opacity="0.5"/>
<circle cx="192.5" cy="304.5" r="2.5" fill="white" fill-opacity="0.5"/>
<circle cx="270.5" cy="230.5" r="2.5" fill="white" fill-opacity="0.5"/>
<circle cx="549.5" cy="301.5" r="2.5" fill="white" fill-opacity="0.5"/>
<circle cx="394.5" cy="447.5" r="2.5" fill="white" fill-opacity="0.5"/>
<circle cx="258.5" cy="484.5" r="2.5" fill="white" fill-opacity="0.5"/>
<circle cx="129.5" cy="621.5" r="2.5" fill="white" fill-opacity="0.5"/>
<circle cx="117.5" cy="470.5" r="2.5" fill="white" fill-opacity="0.5"/>
<circle cx="648.5" cy="530.5" r="2.5" fill="white" fill-opacity="0.5"/>
<circle cx="630.5" cy="623.5" r="2.5" fill="white" fill-opacity="0.5"/>
<circle cx="1015.5" cy="628.5" r="2.5" fill="white" fill-opacity="0.5"/>
<circle cx="1148.5" cy="392.5" r="2.5" fill="white" fill-opacity="0.5"/>
<circle cx="1219.5" cy="332.5" r="2.5" fill="white" fill-opacity="0.5"/>
<circle cx="1143.5" cy="186.5" r="2.5" fill="white" fill-opacity="0.5"/>
<circle cx="728.5" cy="442.5" r="2.5" fill="white" fill-opacity="0.5"/>
<circle cx="1085.5" cy="255.5" r="2.5" fill="white" fill-opacity="0.5"/>
<circle cx="1085.5" cy="170.5" r="2.5" fill="white" fill-opacity="0.5"/>
<circle cx="1231.5" cy="496.5" r="2.5" fill="white" fill-opacity="0.5"/>
<circle cx="1060.5" cy="594.5" r="2.5" fill="white" fill-opacity="0.5"/>
<circle cx="632.5" cy="218.5" r="2.5" fill="white" fill-opacity="0.5"/>
<circle cx="389.5" cy="133.5" r="4.5" fill="white" fill-opacity="0.5"/>
<circle cx="301.5" cy="353.5" r="4.5" fill="white" fill-opacity="0.5"/>
<circle cx="4.5" cy="297.5" r="4.5" fill="white" fill-opacity="0.5"/>
<circle cx="134.5" cy="91.5" r="4.5" fill="white" fill-opacity="0.5"/>
<circle cx="673.5" cy="9.5" r="4.5" fill="white" fill-opacity="0.5"/>
<circle cx="616.5" cy="44.5" r="4.5" fill="white" fill-opacity="0.5"/>
<circle cx="1083.5" cy="82.5" r="4.5" fill="white" fill-opacity="0.5"/>
<circle cx="1278.5" cy="280.5" r="4.5" fill="white" fill-opacity="0.5"/>
<circle cx="1179.5" cy="545.5" r="4.5" fill="white" fill-opacity="0.5"/>
<circle cx="1260.5" cy="655.5" r="4.5" fill="white" fill-opacity="0.5"/>
<circle cx="818.5" cy="655.5" r="4.5" fill="white" fill-opacity="0.5"/>
<circle cx="544.5" cy="655.5" r="4.5" fill="white" fill-opacity="0.5"/>
<circle cx="246.5" cy="650.5" r="4.5" fill="white" fill-opacity="0.5"/>
<circle cx="625.5" cy="463.5" r="4.5" fill="white" fill-opacity="0.5"/>
<circle cx="735.5" cy="311.5" r="4.5" fill="white" fill-opacity="0.5"/>
<circle cx="848.5" cy="134.5" r="4.5" fill="white" fill-opacity="0.5"/>
<circle cx="1092.5" cy="424.5" r="4.5" fill="white" fill-opacity="0.5"/>
<circle cx="957.5" cy="554.5" r="4.5" fill="white" fill-opacity="0.5"/>
<circle cx="898.5" cy="424.5" r="4.5" fill="white" fill-opacity="0.5"/>
<circle cx="389.5" cy="554.5" r="4.5" fill="white" fill-opacity="0.5"/>
<circle cx="74.5" cy="415.5" r="4.5" fill="white" fill-opacity="0.5"/>
</svg>
